<svg width="54" height="53" viewBox="0 0 54 53" fill="none" xmlns="http://www.w3.org/2000/svg">
<g clip-path="url(#clip0_6_73)">
<g clip-path="url(#clip1_6_73)">
<g clip-path="url(#clip2_6_73)">
<mask id="mask0_6_73" style="mask-type:luminance" maskUnits="userSpaceOnUse" x="0" y="0" width="54" height="53">
<path d="M53.747 0H0.00299072V52.73H53.747V0Z" fill="white"/>
</mask>
<g mask="url(#mask0_6_73)">
<path d="M26.3678 2.02832C39.8091 2.02832 50.705 12.9242 50.705 26.3648C50.705 39.806 39.809 50.7024 26.3678 50.7024C12.9272 50.7024 2.03119 39.806 2.03119 26.3648C2.03119 12.9242 12.9272 2.02832 26.3678 2.02832Z" fill="black" fill-opacity="0.01" stroke="white" stroke-width="2.02808"/>
<mask id="mask1_6_73" style="mask-type:luminance" maskUnits="userSpaceOnUse" x="14" y="13" width="26" height="26">
<path d="M39.5505 13.1826H14.1995V38.5336H39.5505V13.1826Z" fill="white"/>
</mask>
<g mask="url(#mask1_6_73)">
<path d="M31.0971 17.3919H33.4113V13.3611C33.0121 13.3062 31.6389 13.1826 30.0396 13.1826C26.7028 13.1826 24.4171 15.2815 24.4171 19.1391V22.6892H20.7348V27.1953H24.4171V38.5336H28.9316V27.1964H32.4649L33.0258 22.6902H28.9306V19.5859C28.9316 18.2834 29.2823 17.3919 31.0971 17.3919Z" fill="white"/>
</g>
</g>
</g>
</g>
</g>
<defs>
<clipPath id="clip0_6_73">
<rect width="53.75" height="52.73" fill="white"/>
</clipPath>
<clipPath id="clip1_6_73">
<rect width="53.75" height="52.73" fill="white"/>
</clipPath>
<clipPath id="clip2_6_73">
<rect width="53.744" height="52.73" fill="white" transform="translate(0.00299072)"/>
</clipPath>
</defs>
</svg>
