<svg width="54" height="54" viewBox="0 0 54 54" fill="none" xmlns="http://www.w3.org/2000/svg">
<g clip-path="url(#clip0_6_86)">
<g clip-path="url(#clip1_6_86)">
<g clip-path="url(#clip2_6_86)">
<mask id="mask0_6_86" style="mask-type:luminance" maskUnits="userSpaceOnUse" x="0" y="0" width="54" height="54">
<path d="M53.75 0H0V53.75H53.75V0Z" fill="white"/>
</mask>
<g mask="url(#mask0_6_86)">
<path d="M26.8749 2.06738C40.5758 2.06738 51.6825 13.1741 51.6825 26.8746C51.6825 40.5758 40.5758 51.683 26.8749 51.683C13.1741 51.683 2.06726 40.5758 2.06726 26.8746C2.06726 13.1741 13.174 2.06738 26.8749 2.06738Z" fill="black" fill-opacity="0.01" stroke="white" stroke-width="2.06731"/>
<mask id="mask1_6_86" style="mask-type:luminance" maskUnits="userSpaceOnUse" x="14" y="14" width="26" height="26">
<path d="M39.2788 14.4712H14.4711V39.2789H39.2788V14.4712Z" fill="white"/>
</mask>
<g mask="url(#mask1_6_86)">
<path d="M39.2544 21.7648C39.1963 20.4466 38.9832 19.5404 38.6778 18.7552C38.3628 17.9216 37.8782 17.1754 37.2432 16.555C36.6229 15.925 35.8718 15.4355 35.0479 15.1254C34.2581 14.82 33.3566 14.6069 32.0385 14.5488C30.7105 14.4858 30.2889 14.4712 26.9209 14.4712C23.5527 14.4712 23.1312 14.4858 21.8081 14.5439C20.49 14.6021 19.5838 14.8154 18.7987 15.1205C17.9651 15.4355 17.2188 15.9202 16.5985 16.555C15.9685 17.1754 15.4791 17.9266 15.1688 18.7504C14.8635 19.5404 14.6503 20.4417 14.5922 21.7598C14.5292 23.0877 14.5145 23.5094 14.5145 26.8774C14.5145 30.2456 14.5292 30.6671 14.5873 31.9902C14.6454 33.3083 14.8587 34.2145 15.1641 34.9998C15.4791 35.8333 15.9685 36.5795 16.5985 37.1999C17.2188 37.8299 17.9699 38.3194 18.7939 38.6295C19.5838 38.9349 20.485 39.148 21.8033 39.2061C23.1262 39.2644 23.548 39.2788 26.9161 39.2788C30.2843 39.2788 30.7058 39.2644 32.0289 39.2061C33.347 39.148 34.2532 38.9349 35.0382 38.6295C36.7054 37.985 38.0235 36.6667 38.6681 34.9998C38.9733 34.2098 39.1866 33.3083 39.2448 31.9902C39.3029 30.6671 39.3175 30.2456 39.3175 26.8774C39.3175 23.5094 39.3125 23.0877 39.2544 21.7648ZM37.0205 31.8933C36.967 33.1049 36.7635 33.7591 36.5939 34.1953C36.1771 35.276 35.3193 36.1337 34.2386 36.5506C33.8024 36.7202 33.1434 36.9237 31.9367 36.9768C30.6282 37.0351 30.2358 37.0496 26.9258 37.0496C23.6157 37.0496 23.2184 37.0351 21.9147 36.9768C20.7031 36.9237 20.0489 36.7202 19.6127 36.5506C19.0749 36.3518 18.5854 36.0367 18.188 35.6248C17.7761 35.2226 17.4611 34.7379 17.2623 34.2001C17.0927 33.764 16.8892 33.1049 16.836 31.8982C16.7777 30.5897 16.7633 30.1971 16.7633 26.8871C16.7633 23.5772 16.7777 23.1797 16.836 21.8762C16.8892 20.6646 17.0927 20.0104 17.2623 19.5742C17.4611 19.0363 17.7761 18.5469 18.193 18.1493C18.5951 17.7374 19.0797 17.4225 19.6177 17.2239C20.0538 17.0543 20.7129 16.8508 21.9196 16.7973C23.2281 16.7392 23.6207 16.7247 26.9305 16.7247C30.2454 16.7247 30.6379 16.7392 31.9416 16.7973C33.1532 16.8508 33.8074 17.0543 34.2436 17.2239C34.7814 17.4225 35.2709 17.7374 35.6683 18.1493C36.0802 18.5516 36.3951 19.0363 36.5939 19.5742C36.7635 20.0104 36.967 20.6694 37.0205 21.8762C37.0786 23.1847 37.0931 23.5772 37.0931 26.8871C37.0931 30.1971 37.0786 30.5848 37.0205 31.8933Z" fill="white"/>
<path d="M26.9209 20.5049C23.4026 20.5049 20.5481 23.3592 20.5481 26.8776C20.5481 30.396 23.4026 33.2504 26.9209 33.2504C30.4392 33.2504 33.2936 30.396 33.2936 26.8776C33.2936 23.3592 30.4392 20.5049 26.9209 20.5049ZM26.9209 31.0115C24.6384 31.0115 22.787 29.1602 22.787 26.8776C22.787 24.5949 24.6384 22.7438 26.9209 22.7438C29.2035 22.7438 31.0547 24.5949 31.0547 26.8776C31.0547 29.1602 29.2035 31.0115 26.9209 31.0115Z" fill="white"/>
<path d="M35.0335 20.2526C35.0335 21.0743 34.3674 21.7404 33.5456 21.7404C32.724 21.7404 32.0579 21.0743 32.0579 20.2526C32.0579 19.4309 32.724 18.7649 33.5456 18.7649C34.3674 18.7649 35.0335 19.4309 35.0335 20.2526Z" fill="white"/>
</g>
</g>
</g>
</g>
</g>
<defs>
<clipPath id="clip0_6_86">
<rect width="53.75" height="53.75" fill="white"/>
</clipPath>
<clipPath id="clip1_6_86">
<rect width="53.75" height="53.75" fill="white"/>
</clipPath>
<clipPath id="clip2_6_86">
<rect width="53.75" height="53.75" fill="white"/>
</clipPath>
</defs>
</svg>
