<svg width="54" height="53" viewBox="0 0 54 53" fill="none" xmlns="http://www.w3.org/2000/svg">
<g clip-path="url(#clip0_6_101)">
<g clip-path="url(#clip1_6_101)">
<g clip-path="url(#clip2_6_101)">
<mask id="mask0_6_101" style="mask-type:luminance" maskUnits="userSpaceOnUse" x="0" y="0" width="54" height="53">
<path d="M53.747 0H0.00292969V52.73H53.747V0Z" fill="white"/>
</mask>
<g mask="url(#mask0_6_101)">
<path d="M27.3822 2.02832C40.8228 2.02832 51.719 12.9242 51.719 26.3648C51.719 39.806 40.8228 50.7024 27.3822 50.7024C13.9409 50.7024 3.04492 39.806 3.04492 26.3648C3.04492 12.9242 13.9409 2.02832 27.3822 2.02832Z" fill="black" fill-opacity="0.01" stroke="white" stroke-width="2.02808"/>
<mask id="mask1_6_101" style="mask-type:luminance" maskUnits="userSpaceOnUse" x="15" y="14" width="25" height="25">
<path d="M39.5504 14.1968H15.2135V38.5337H39.5504V14.1968Z" fill="white"/>
</mask>
<g mask="url(#mask1_6_101)">
<path d="M27.7126 14.1968C21.0412 14.1978 17.4951 18.472 17.4951 23.1325C17.4951 25.2934 18.7028 27.9897 20.6366 28.8446C21.1882 29.093 21.1152 28.7898 21.5898 26.9747C21.6273 26.8236 21.6081 26.6928 21.4864 26.5518C18.7221 23.3546 20.9469 16.7816 27.3181 16.7816C36.5388 16.7816 34.8159 29.5402 28.9223 29.5402C27.4033 29.5402 26.2716 28.3477 26.6296 26.8723C27.0636 25.1149 27.9133 23.2258 27.9133 21.9592C27.9133 18.767 23.1575 19.2406 23.1575 23.4702C23.1575 24.7773 23.6199 25.6595 23.6199 25.6595C23.6199 25.6595 22.0897 31.841 21.8058 32.996C21.3251 34.9511 21.8707 38.1159 21.9184 38.3887C21.9478 38.5388 22.1161 38.5864 22.2104 38.4627C22.3615 38.265 24.2111 35.6265 24.7293 33.719C24.9179 33.0244 25.6916 30.2054 25.6916 30.2054C26.2017 31.1262 27.672 31.8968 29.2387 31.8968C33.8992 31.8968 37.2679 27.8001 37.2679 22.7167C37.2516 17.8433 33.0809 14.1968 27.7126 14.1968Z" fill="white"/>
</g>
</g>
</g>
</g>
</g>
<defs>
<clipPath id="clip0_6_101">
<rect width="53.75" height="52.73" fill="white"/>
</clipPath>
<clipPath id="clip1_6_101">
<rect width="53.75" height="52.73" fill="white"/>
</clipPath>
<clipPath id="clip2_6_101">
<rect width="53.744" height="52.73" fill="white" transform="translate(0.00292969)"/>
</clipPath>
</defs>
</svg>
